<svg width="800" height="600" viewBox="0 0 800 600" fill="none" xmlns="http://www.w3.org/2000/svg">
  <rect x="0" y="0" width="800" height="600" rx="36" fill="#111827"/>
  <rect x="40" y="40" width="720" height="520" rx="28" fill="#1f2937"/>
  <rect x="70" y="70" width="660" height="120" rx="24" fill="#2e3a52"/>
  <rect x="90" y="100" width="260" height="24" rx="12" fill="#f8fafc" opacity="0.9"/>
  <rect x="90" y="138" width="190" height="16" rx="8" fill="#94a3b8" opacity="0.9"/>
  <rect x="90" y="190" width="620" height="22" rx="11" fill="#334155"/>
  <rect x="90" y="230" width="520" height="22" rx="11" fill="#334155"/>
  <rect x="90" y="270" width="300" height="22" rx="11" fill="#334155"/>
  <rect x="90" y="320" width="420" height="22" rx="11" fill="#334155"/>
  <rect x="90" y="370" width="540" height="22" rx="11" fill="#334155"/>
  <rect x="90" y="420" width="180" height="22" rx="11" fill="#334155"/>
  <circle cx="610" cy="170" r="44" fill="#d97706" opacity="0.95"/>
  <circle cx="620" cy="165" r="26" fill="#f8fafc"/>
  <circle cx="200" cy="430" r="22" fill="#38bdf8" opacity="0.85"/>
  <circle cx="360" cy="460" r="30" fill="#c084fc" opacity="0.7"/>
  <path d="M125 440C145 420 194 374 250 394C306 414 354 478 475 462" stroke="#e2e8f0" stroke-width="8" stroke-linecap="round" opacity="0.7"/>
</svg>
